HIERARCHY
ROOT Hips
{
  OFFSET 74.5537 90.8213 43.4541
  CHANNELS 6 Xposition Yposition Zposition Zrotation Xrotation Yrotation
  JOINT ToSpine
  {
    OFFSET -2.69724 7.43032 -0.144315
    CHANNELS 3 Zrotation Xrotation Yrotation
    JOINT Spine
    {
      OFFSET -0.0310711 10.7595 1.96963
      CHANNELS 3 Zrotation Xrotation Yrotation
      JOINT Spine1
      {
        OFFSET 13.1342 3.43533 0.764692
        CHANNELS 3 Zrotation Xrotation Yrotation
        JOINT Neck
        {
          OFFSET 29.8703 7.82586 -0.130764
          CHANNELS 3 Zrotation Xrotation Yrotation
          JOINT Head
          {
            OFFSET 9.52751 0.295786 -0.907742
            CHANNELS 3 Zrotation Xrotation Yrotation
            End Site
            {
              OFFSET 16.4037 0.713936 2.7358
            }
          }
        }
        JOINT LeftShoulder
        {
          OFFSET 27.5574 4.95586 2.47156
          CHANNELS 3 Zrotation Xrotation Yrotation
          JOINT LeftArm
          {
            OFFSET 1.20734 -0.998971 20.1238
            CHANNELS 3 Zrotation Xrotation Yrotation
            JOINT LeftForeArm
            {
              OFFSET 26.8049 -0.0536703 -0.155908
              CHANNELS 3 Zrotation Xrotation Yrotation
              JOINT LeftHand
              {
                OFFSET 26.6817 0 0.320147
                CHANNELS 3 Zrotation Xrotation Yrotation
                End Site
                {
                  OFFSET 18.6119 0 0.382219
                }
              }
            }
          }
        }
        JOINT RightShoulder
        {
          OFFSET 27.5927 4.71444 -2.65209
          CHANNELS 3 Zrotation Xrotation Yrotation
          JOINT RightArm
          {
            OFFSET 2.83739 -1.17114 -18.7564
            CHANNELS 3 Zrotation Xrotation Yrotation
            JOINT RightForeArm
            {
              OFFSET 28.839 -0.0548439 1.22491
              CHANNELS 3 Zrotation Xrotation Yrotation
              JOINT RightHand
              {
                OFFSET 26.5114 0 -0.101894
                CHANNELS 3 Zrotation Xrotation Yrotation
                End Site
                {
                  OFFSET 18.2168 0 0
                }
              }
            }
          }
        }
      }
    }
  }
  JOINT LeftUpLeg
  {
    OFFSET -4.76168 -1.9167 -10.2353
    CHANNELS 3 Zrotation Xrotation Yrotation
    JOINT LeftLeg
    {
      OFFSET 2.55951 -42.0585 -8.02213
      CHANNELS 3 Zrotation Xrotation Yrotation
      JOINT LeftFoot
      {
        OFFSET 3.16357 -42.5282 -3.95426
        CHANNELS 3 Zrotation Xrotation Yrotation
        JOINT LeftToeBase
        {
          OFFSET 0.346054 -6.02161 12.8035
          CHANNELS 3 Zrotation Xrotation Yrotation
          End Site
          {
            OFFSET 0.134235 -1.35082 5.13018
          }
        }
      }
    }
  }
  JOINT RightUpLeg
  {
    OFFSET -4.94151 -1.41743 10.6446
    CHANNELS 3 Zrotation Xrotation Yrotation
    JOINT RightLeg
    {
      OFFSET -2.56294 -42.0364 -7.94377
      CHANNELS 3 Zrotation Xrotation Yrotation
      JOINT RightFoot
      {
        OFFSET -3.0952 -42.555 -4.02241
        CHANNELS 3 Zrotation Xrotation Yrotation
        JOINT RightToeBase
        {
          OFFSET -0.0828122 -6.13587 12.8035
          CHANNELS 3 Zrotation Xrotation Yrotation
          End Site
          {
            OFFSET -0.131328 -1.35082 5.13018
          }
        }
      }
    }
  }
}
MOTION
Frames:	15
Frame Time:	0.0333333
29.5005 88.6903 -299.521 -2.55854 -58.6774 -90.0339 -70.1915 0 88.8779 91.6609 66.9336 -4.80006 -1.26968 16.4039 3.12655 -160.37 14.0438 174.452 -154.338 53.4302 -170.48 0.617279 -12.6694 -27.5117 -83.1648 46.0569 -72.3416 16.013 -5.38789 -107.299 0.420957 0.000575189 0.35866 -1.9935 6.48356 45.1635 -68.0521 -44.385 52.1565 22.9519 -7.30514 73.153 0.58676 0.000331131 0.0646652 -65.7291 1.50168 94.2671 -3.49608 43.9171 -11.1437 -5.4667 0.580433 0.689913 11.9483 -24.081 4.78219 -3.85016 4.05995 80.1891 2.26437 55.6628 -7.03172 -5.6772 -0.0910231 0.88535 2.2257 -23.4406 -14.8708 
29.2645 88.9264 -286.862 -1.3955 -59.4371 -89.9263 -70.1915 0 88.8779 86.5671 66.1562 -0.335017 -0.0806067 15.8038 3.50243 -161.204 13.5681 176.058 -156.39 53.0969 -169.865 0.624964 -12.6022 -27.6873 -80.6905 46.3133 -72.7977 16.9591 -7.48479 -112.292 0.420957 0.000575189 0.35866 -1.91493 6.60306 43.4591 -71.8093 -43.9485 48.8546 20.6925 -6.8012 72.4689 0.58676 0.000331131 0.0646652 -69.8491 -0.282352 91.768 -3.78709 44.9623 -12.7665 -5.72306 10.988 2.04022 2.84005 -7.95264 7.28167 -7.45191 4.12036 82.1968 1.24868 39.3023 -2.71467 -1.90605 6.31427 0.0134948 2.21231 -22.0533 -15.5739 
29.5937 88.6575 -275.726 0.161418 -60.3908 -90.3253 -70.1915 0 88.8779 84.4645 66.3123 1.49668 1.14927 16.0873 2.97772 -159.691 14.3992 177.573 -155.882 53.9884 -169.109 0.546315 -13.0181 -27.9243 -77.3203 47.8464 -73.8721 17.82 -7.47575 -111.209 0.420957 0.000575189 0.35866 -1.8075 6.45001 42.5414 -75.7942 -42.4585 48.481 19.4939 -6.6743 71.709 0.58676 0.000331131 0.0646652 -66.7662 -3.48146 90.6504 -4.85116 55.923 -6.14 -6.49422 5.02364 1.4227 -0.0481059 -2.50024 6.80414 -8.38228 3.33319 84.6531 2.3654 41.7897 4.30241 -1.4405 5.9248 -0.0474086 2.3596 -17.7741 -32.129 
29.7151 88.0855 -264.17 -1.19167 -63.919 -92.3443 -70.1915 0 88.8779 95.3697 67.3586 -9.03618 -0.618189 17.0213 2.99376 -157.598 15.3396 179.393 -155.502 55.0547 -166.905 0.376283 -13.7296 -29.278 -74.7641 49.7308 -74.0955 16.3329 -4.37243 -103.789 0.420957 0.000575189 0.35866 -1.81073 6.29456 43.294 -77.1199 -38.7545 52.6698 22.5586 -8.24505 70.8314 0.58676 0.000331131 0.0646652 -61.8223 -3.48898 93.202 -8.89293 69.4952 1.85348 -4.64403 3.2762 0.896428 3.95933 -10.5769 10.9771 -11.935 1.93409 81.9015 0.531284 55.932 -15.3379 -12.1105 -9.25647 1.4622 -1.47934 -4.07787 14.9349 
29.2704 87.6541 -252.733 -13.9579 -65.3402 -102.281 -70.1915 0 88.8779 107.784 69.3616 -16.4461 -1.51764 20.007 1.67855 -156.111 15.9785 179.858 -154.325 55.6712 -166.299 0.120756 -14.5358 -31.8143 -76.0157 51.1229 -71.2561 18.7997 -1.18171 -92.7537 0.420957 0.000575189 0.35866 -1.92 6.25523 45.1541 -76.5442 -33.9836 61.4979 21.0157 -8.60622 68.6106 0.58676 0.000331131 0.0646652 -52.614 2.79489 97.2679 -26.1931 81.7126 21.7887 -1.478 -1.81753 -0.0648665 6.54554 -14.9353 12.6087 -18.2348 9.54399 84.8907 3.81742 62.9106 -7.29905 -10.2171 -14.0886 1.31433 2.71287 -8.22989 -18.9798 
28.8491 87.148 -241.937 -24.7058 -65.5355 -112.442 -70.1915 0 88.8779 118.25 70.9863 -25.5579 -1.61647 22.8587 1.06257 -157.933 16.5922 -179.707 -154.72 56.247 -167.665 0.216499 -13.896 -32.9951 -75.1992 52.5129 -71.0043 21.3259 3.99513 -79.2496 0.420957 0.000575189 0.35866 -2.02556 6.75456 44.3869 -75.2086 -32.2964 73.3601 23.3875 -11.0055 66.0748 0.58676 0.000331131 0.0646652 -41.2231 7.53777 99.4048 -91.4464 86.0718 89.5982 0.508297 -7.29936 -0.698159 8.21846 -17.5681 14.1674 -26.9391 13.6323 87.9642 3.86756 65.273 -9.71947 -5.27347 -25.9625 1.6886 2.74596 -3.01677 -17.5805 
28.8222 88.3044 -231.6 -16.2921 -65.5679 -105.637 -70.1915 0 88.8779 113.319 71.5132 -23.1239 -1.96148 22.6347 1.88296 -158.015 17.2315 179.042 -154.744 56.8331 -168.383 0.205241 -13.9161 -33.1882 -73.4748 53.9893 -67.3451 19.5542 5.72006 -73.7292 0.420957 0.000575189 0.35866 -1.96109 6.79496 43.2882 -75.065 -33.9828 80.7774 22.3585 -8.81568 69.4483 0.58676 0.000331131 0.0646652 -26.5228 4.4873 96.46 -61.5866 85.8755 61.4133 0.435106 -8.26022 -0.766359 10.6287 -20.88 19.4342 -35.1383 9.06392 87.5374 4.39895 62.7546 -5.01623 -7.38562 -28.3961 1.50551 3.23194 -9.924 -26.765 
28.9984 89.199 -220.347 -20.0329 -65.3933 -111.039 -70.1915 0 88.8779 118.124 72.4477 -29.4423 -3.54953 24.6629 1.40208 -157.708 17.9373 178.611 -155.344 57.6544 -166.96 0.420989 -13.0272 -32.6253 -72.1421 56.057 -60.3587 15.7671 4.15254 -75.0298 0.420957 0.000575189 0.35866 -1.89409 7.20018 40.7087 -74.2373 -37.992 86.5925 25.3145 -6.64698 76.0963 0.58676 0.000331131 0.0646652 -18.328 4.47355 97.4857 -14.4559 78.1265 15.418 0.622534 -11.7195 -1.03603 8.50791 -18.0252 19.6447 -45.2842 7.49956 91.4434 3.41103 59.1202 -5.12159 -2.0111 -26.3402 2.05387 2.29433 -16.846 -16.1608 
29.3766 90.7959 -208.2 -22.123 -65.2818 -113.329 -70.1915 0 88.8779 122.069 73.6085 -33.3325 -4.76571 26.4831 1.07945 -156.833 19.3415 177.301 -155.062 59.0338 -167.034 0.708382 -11.9252 -29.8316 -71.1101 59.221 -55.1023 15.7368 3.44718 -77.3525 0.420957 0.000575189 0.35866 -1.77153 7.33023 38.5571 -73.0639 -41.5954 89.8331 29.7917 -3.58932 83.5688 0.58676 0.000331131 0.0646652 -15.4332 4.01747 96.778 -5.26262 61.0481 -0.237033 -2.68357 -7.4226 -0.502642 9.61066 -19.4598 21.8335 -55.4145 5.25683 93.2403 2.81484 53.6845 -3.0283 -0.683376 -14.734 1.3038 2.80438 -25.651 -6.21503 
30.064 92.5382 -194.914 -21.2614 -65.6934 -112.505 -70.1915 0 88.8779 111.581 76.1751 -21.8035 -1.04272 27.3998 -0.313532 -156.296 20.5889 177.234 -155.53 60.2824 -166.881 0.613767 -12.6156 -28.0846 -73.6475 62.5728 -48.5238 16.3792 3.25842 -78.4453 0.420957 0.000575189 0.35866 -1.71476 7.43607 37.4247 -71.3705 -42.5784 90.6731 32.6587 0.599934 90.7139 0.58676 0.000331131 0.0646652 -16.9518 1.69358 95.1907 -2.44428 40.4455 -4.99803 -8.74351 4.62738 1.75464 8.18388 -17.5389 15.8574 -65.0567 1.19529 91.2217 1.9279 45.7091 -2.08804 -1.85721 2.16517 0.255094 5.18682 -28.9504 14.3109 
30.5233 94.2705 -181.747 -22.6979 -65.5845 -113.252 -70.1915 0 88.8779 96.7624 78.0906 -5.86186 2.33287 28.2715 -0.932457 -155.054 21.2456 176.186 -153.964 60.773 -168.816 0.710403 -12.2128 -26.7372 -74.7167 64.783 -44.6826 15.9805 2.74953 -79.87 0.420957 0.000575189 0.35866 -1.58747 7.23018 36.3596 -69.0329 -44.0021 90.8527 32.8405 3.65877 95.4048 0.58676 0.000331131 0.0646652 -19.1758 1.7857 95.1928 -2.53437 27.0968 -8.80632 -9.83818 12.6421 3.23696 6.50206 -14.641 9.36526 -71.9963 0.176468 91.6786 2.4976 40.8209 5.85531 -0.200957 16.4677 -1.05234 2.09753 -16.5549 -3.7691 
30.8913 94.4985 -169.39 -22.7469 -63.6499 -110.836 -70.1915 0 88.8779 78.853 77.6237 15.3484 3.64086 28.1433 -1.83067 -152.048 20.8275 174.338 -151.675 60.2966 -169.507 0.953585 -10.793 -25.0906 -77.9876 66.175 -40.7732 16.9829 2.47296 -81.324 0.420957 0.000575189 0.35866 -1.55338 7.03304 36.5387 -67.0767 -45.0126 90.3366 35.7255 4.04937 95.3668 0.58676 0.000331131 0.0646652 -17.3539 3.56162 96.1003 -2.831 26.4236 -4.53382 -12.2135 17.3942 4.67511 6.10539 -13.6446 5.78626 -69.8996 1.78578 91.5583 2.34867 47.1968 -0.0631348 -1.38526 17.6222 -0.805717 1.49373 -9.14592 -4.7038 
31.0656 93.8444 -157.613 -27.3356 -66.2265 -113.85 -70.1915 0 88.8779 92.3185 77.5846 1.67319 2.59507 27.802 -0.974268 -150.491 19.9848 173.464 -151.556 59.545 -169.015 0.964329 -10.6833 -26.3233 -81.4083 64.4418 -39.2477 17.4919 2.31992 -82.0436 0.420957 0.000575189 0.35866 -1.71923 7.07514 38.7432 -68.5205 -44.3573 86.7595 31.3473 0.749123 91.0063 0.58676 0.000331131 0.0646652 -20.7087 5.33056 101.293 -2.61521 34.5539 -11.0086 -12.4229 15.492 4.38609 -0.319522 -0.566396 2.96479 -67.9821 2.41048 91.0541 3.03073 59.6296 -7.25951 -4.10205 14.3983 0.0862439 1.29976 -5.63189 -5.51723 
31.5826 92.9599 -146.249 -30.2766 -67.7501 -118.553 -70.1915 0 88.8779 100.314 77.0211 -10.9214 -0.314035 27.1164 1.74034 -148.757 18.6817 173.451 -150.934 58.276 -168.647 1.01037 -10.3724 -28.5241 -81.794 61.3355 -42.7748 15.6341 1.74784 -83.1389 0.420957 0.000575189 0.35866 -1.83622 6.7412 41.7164 -70.8405 -42.9896 81.4335 29.1017 -3.51818 83.5188 0.58676 0.000331131 0.0646652 -24.9765 3.73316 104.957 -3.39292 45.6746 -8.45995 0.683236 -2.0792 -0.328306 -2.59206 9.67213 -6.24448 -61.8428 -0.946752 90.3369 4.78153 71.8911 -15.995 -8.48451 10.2904 1.20644 0.817291 -6.7542 -0.0988942 
32.5502 92.0316 -135.212 -29.962 -70.1776 -118.819 -70.1915 0 88.8779 104.706 74.783 -16.4788 0.421184 25.5868 0.319862 -148.667 17.2117 173.133 -150.28 56.7991 -168.846 0.885852 -10.9601 -31.0775 -82.4732 56.0222 -48.6029 16.861 1.39599 -84.7462 0.420957 0.000575189 0.35866 -2.04551 6.63807 45.2024 -73.9431 -41.1063 76.5487 25.7701 -8.19084 73.4157 0.58676 0.000331131 0.0646652 -30.0208 0.201557 104.456 -5.02893 54.1059 -10.2334 4.20229 -10.2666 -1.06546 -1.77167 -1.14431 11.8282 -54.5808 -2.57891 89.7064 10.813 80.758 -24.5808 -7.24879 4.53496 1.02087 0.350257 -7.96587 6.37813 
